# xmcd
#
# Track frame offsets:
#	150
#	18197
#	35556
#	49149
#	69278
#	85920
#	103778
#	116716
#	130553
#	145320
#	163738
#	179574
#	199612
#	219815
#	232346
#	249501
#	266255
#
# Disc length: 3779 seconds
#
# Revision: 1
# Processed by: cddbd v1.5.2PL0 Copyright (c) Steve Scherf et al.
# Submitted via: audiograbber 1.83.01
#
DISCID=ed0ec111
DTITLE=Countdown - 50 Country Love Songs Disc 1
DYEAR=1900
DGENRE=Country
TTITLE0=When the Lights Go Down
TTITLE1=I Can Love You Like That
TTITLE2=I Can Love You Better
TTITLE3=Just To Hear You Say That You Love Me
TTITLE4=I Would've Loved You Anyway
TTITLE5=To Make You Feel My Love
TTITLE6=I Love You
TTITLE7=Everything I Love
TTITLE8=Love In The First Degree
TTITLE9=You Won't Ever Be Lonely
TTITLE10=For You I Will
TTITLE11=It's A Beautiful Thing
TTITLE12=If You Ever Have Forever In Mind
TTITLE13=Fall Into Me
TTITLE14=You Had Me From Hello
TTITLE15=Buy Me a Rose
TTITLE16=Somebody Like You
EXTD=
EXTT0=
EXTT1=
EXTT2=
EXTT3=
EXTT4=
EXTT5=
EXTT6=
EXTT7=
EXTT8=
EXTT9=
EXTT10=
EXTT11=
EXTT12=
EXTT13=
EXTT14=
EXTT15=
EXTT16=
PLAYORDER=
